<?xml version="1.0" encoding="UTF-8" standalone="no"?>
<svg
   inkscape:version="1.2.1 (9c6d41e410, 2022-07-14)"
   id="svg8"
   version="1.1"
   viewBox="0 0 64 64"
   height="64"
   width="64"
   sodipodi:docname="fsmgears.svg"
   xmlns:inkscape="http://www.inkscape.org/namespaces/inkscape"
   xmlns:sodipodi="http://sodipodi.sourceforge.net/DTD/sodipodi-0.dtd"
   xmlns:xlink="http://www.w3.org/1999/xlink"
   xmlns="http://www.w3.org/2000/svg"
   xmlns:svg="http://www.w3.org/2000/svg"
   xmlns:rdf="http://www.w3.org/1999/02/22-rdf-syntax-ns#"
   xmlns:cc="http://creativecommons.org/ns#"
   xmlns:dc="http://purl.org/dc/elements/1.1/">
  <defs
     id="defs2">
    <mask
       maskUnits="userSpaceOnUse"
       id="mask4662">
      <rect
         style="fill:url(#linearGradient4666);fill-opacity:1;stroke:none;stroke-width:3;stroke-linecap:round;paint-order:markers stroke fill"
         id="rect4664"
         width="88.50853"
         height="60.308647"
         x="-133.74002"
         y="-153.00528" />
    </mask>
    <linearGradient
       inkscape:collect="always"
       xlink:href="#linearGradient4164"
       id="linearGradient4666"
       gradientUnits="userSpaceOnUse"
       x1="-99.956009"
       y1="-122.85096"
       x2="-98.559975"
       y2="-122.85096" />
    <linearGradient
       inkscape:collect="always"
       id="linearGradient4164">
      <stop
         style="stop-color:#ffffff;stop-opacity:0.5"
         offset="0"
         id="stop4160" />
      <stop
         style="stop-color:#ffffff;stop-opacity:1"
         offset="1"
         id="stop4162" />
    </linearGradient>
    <mask
       maskUnits="userSpaceOnUse"
       id="mask4662-4">
      <rect
         style="fill:url(#linearGradient4666);fill-opacity:1;stroke:none;stroke-width:3;stroke-linecap:round;paint-order:markers stroke fill"
         id="rect4664-9"
         width="88.50853"
         height="60.308647"
         x="-133.74002"
         y="-153.00528" />
    </mask>
  </defs>
  <sodipodi:namedview
     guidetolerance="19.9"
     objecttolerance="11"
     inkscape:showpageshadow="false"
     borderlayer="true"
     inkscape:pagecheckerboard="false"
     units="px"
     showgrid="true"
     inkscape:document-rotation="0"
     inkscape:current-layer="layer1"
     inkscape:document-units="px"
     inkscape:cy="35.93207"
     inkscape:cx="32.871921"
     inkscape:zoom="10.130226"
     inkscape:pageshadow="2"
     inkscape:pageopacity="0"
     borderopacity="1"
     bordercolor="#931476"
     pagecolor="#808080"
     id="base"
     gridtolerance="11.4"
     inkscape:window-width="1920"
     inkscape:window-height="1013"
     inkscape:window-x="-9"
     inkscape:window-y="-9"
     inkscape:window-maximized="1"
     inkscape:blackoutopacity="0.0"
     inkscape:deskcolor="#636363"
     inkscape:snap-global="false" />
  <metadata
     id="metadata5">
    <rdf:RDF>
      <cc:Work
         rdf:about="">
        <dc:format>image/svg+xml</dc:format>
        <dc:type
           rdf:resource="http://purl.org/dc/dcmitype/StillImage" />
        <cc:license
           rdf:resource="http://creativecommons.org/licenses/by-sa/4.0/" />
      </cc:Work>
      <cc:License
         rdf:about="http://creativecommons.org/licenses/by-sa/4.0/">
        <cc:permits
           rdf:resource="http://creativecommons.org/ns#Reproduction" />
        <cc:permits
           rdf:resource="http://creativecommons.org/ns#Distribution" />
        <cc:requires
           rdf:resource="http://creativecommons.org/ns#Notice" />
        <cc:requires
           rdf:resource="http://creativecommons.org/ns#Attribution" />
        <cc:permits
           rdf:resource="http://creativecommons.org/ns#DerivativeWorks" />
        <cc:requires
           rdf:resource="http://creativecommons.org/ns#ShareAlike" />
      </cc:License>
    </rdf:RDF>
  </metadata>
  <g
     id="layer1"
     inkscape:groupmode="layer"
     inkscape:label="workspace">
    <path
       id="path246"
       style="fill:#9fd7e6;stroke:#000000;stroke-width:2;stroke-linecap:round;stroke-dasharray:none;paint-order:markers stroke fill;stop-color:#000000"
       d="M 19.588513,2.8931217 A 16.985163,16.985151 0 0 0 16.698585,3.1666361 V 7.103974 A 13.127379,13.12737 0 0 0 12.581021,8.7832269 L 9.8225502,6.0247571 A 16.985163,16.985151 0 0 0 5.7367905,10.110515 l 2.7584711,2.758468 A 13.127379,13.12737 0 0 0 6.8160082,16.986544 H 2.8786675 a 16.985163,16.985151 0 0 0 -0.2735147,2.889925 16.985163,16.985151 0 0 0 0.2735147,2.889925 h 3.9373407 a 13.127379,13.12737 0 0 0 1.6792534,4.117561 l -2.7584711,2.758469 a 16.985163,16.985151 0 0 0 4.0857597,4.085757 l 2.7584708,-2.758469 a 13.127379,13.12737 0 0 0 4.117564,1.679252 v 3.937338 a 16.985163,16.985151 0 0 0 2.889928,0.273515 16.985163,16.985151 0 0 0 2.889927,-0.273515 v -3.937338 a 13.127379,13.12737 0 0 0 4.117564,-1.679252 l 2.758471,2.758469 a 16.985163,16.985151 0 0 0 4.08576,-4.085757 l -2.758471,-2.758469 a 13.127379,13.12737 0 0 0 1.679253,-4.117561 h 3.937341 a 16.985163,16.985151 0 0 0 0.273515,-2.889925 16.985163,16.985151 0 0 0 -0.250192,-2.889925 h -3.9331 a 13.127379,13.12737 0 0 0 -1.704697,-4.119681 l 2.779674,-2.777551 A 16.985163,16.985151 0 0 0 29.375678,6.0014345 L 26.598124,8.7811068 A 13.127379,13.12737 0 0 0 22.47844,7.0764101 V 3.1433136 A 16.985163,16.985151 0 0 0 19.588513,2.8931217 Z m 0,12.0537233 a 4.9294646,4.9294609 0 0 1 4.929627,4.929624 4.9294646,4.9294609 0 0 1 -4.929627,4.929624 4.9294646,4.9294609 0 0 1 -4.929628,-4.929624 4.9294646,4.9294609 0 0 1 4.929628,-4.929624 z" />
    <path
       id="path430"
       style="fill:#9fd7e6;stroke:#000000;stroke-width:2;stroke-linecap:round;stroke-dasharray:none;paint-order:markers stroke fill;stop-color:#000000"
       d="m 43.477042,19.519403 a 13.967342,13.967275 88.42099 0 0 -2.213478,0.89366 l 0.923855,3.103175 a 10.794985,10.794933 88.42099 0 0 -2.85118,2.289631 l -2.821297,-1.526811 a 13.967342,13.967275 88.42099 0 0 -2.261455,4.178832 l 2.821296,1.526813 a 10.794985,10.794933 88.42099 0 0 -0.357338,3.639235 l -3.103159,0.923858 a 13.967342,13.967275 88.42099 0 0 0.462524,2.341844 13.967342,13.967275 88.42099 0 0 0.893657,2.213488 l 3.103159,-0.923857 a 10.794985,10.794933 88.42099 0 0 2.289622,2.851195 l -1.526805,2.821308 a 13.967342,13.967275 88.42099 0 0 4.178814,2.261466 l 1.526805,-2.821309 a 10.794985,10.794933 88.42099 0 0 3.639218,0.35734 l 0.923855,3.103174 a 13.967342,13.967275 88.42099 0 0 2.341833,-0.462526 13.967342,13.967275 88.42099 0 0 2.213477,-0.893659 L 52.73659,42.293085 a 10.794985,10.794933 88.42099 0 0 2.851181,-2.289632 l 2.821295,1.526812 a 13.967342,13.967275 88.42099 0 0 2.261454,-4.178833 l -2.821295,-1.526811 a 10.794985,10.794933 88.42099 0 0 0.357338,-3.639236 l 3.103159,-0.923859 a 13.967342,13.967275 88.42099 0 0 -0.462524,-2.341843 13.967342,13.967275 88.42099 0 0 -0.875276,-2.218961 l -3.099815,0.922863 a 10.794985,10.794933 88.42099 0 0 -2.310172,-2.846896 l 1.539036,-2.841323 a 13.967342,13.967275 88.42099 0 0 -4.18098,-2.262639 l -1.53687,2.842496 a 10.794985,10.794933 88.42099 0 0 -3.646859,-0.376895 l -0.92286,-3.099831 a 13.967342,13.967275 88.42099 0 0 -2.33636,0.480906 z m 2.828279,9.500024 a 4.0536268,4.0536075 88.42099 0 1 5.0419,2.728546 4.0536268,4.0536075 88.42099 0 1 -2.728532,5.041924 4.0536268,4.0536075 88.42099 0 1 -5.0419,-2.728547 4.0536268,4.0536075 88.42099 0 1 2.728532,-5.041923 z" />
    <path
       id="path432"
       style="fill:#9fd7e6;stroke:#000000;stroke-width:2;stroke-linecap:round;stroke-dasharray:none;paint-order:markers stroke fill;stop-color:#000000"
       d="m 28.167259,38.12589 a 11.493737,11.493838 15.000387 0 0 -1.951266,0.2262 l 0.05605,2.663804 A 8.8832022,8.8832803 15.003575 0 0 23.51024,42.210625 L 21.604746,40.38367 a 11.493737,11.493838 15.000387 0 0 -2.706022,2.822398 l 1.9055,1.826958 a 8.8832022,8.8832803 15.003575 0 0 -1.077464,2.809645 l -2.663781,0.05606 a 11.493737,11.493838 15.000387 0 0 -0.143898,1.959071 11.493737,11.493838 15.000387 0 0 0.226189,1.951279 l 2.663784,-0.05606 a 8.8832022,8.8832803 15.003575 0 0 1.194709,2.761817 l -1.826949,1.905521 a 11.493737,11.493838 15.000387 0 0 2.822365,2.706032 l 1.826952,-1.905522 a 8.8832022,8.8832803 15.003575 0 0 2.809619,1.077458 l 0.05605,2.663804 a 11.493737,11.493838 15.000387 0 0 1.959056,0.14389 11.493737,11.493838 15.000387 0 0 1.951267,-0.2262 l -0.05605,-2.663803 a 8.8832022,8.8832803 15.003575 0 0 2.761804,-1.194733 l 1.905499,1.826956 a 11.493737,11.493838 15.000387 0 0 2.706022,-2.822399 l -1.9055,-1.826956 a 8.8832022,8.8832803 15.003575 0 0 1.077465,-2.809646 l 2.663782,-0.05606 a 11.493737,11.493838 15.000387 0 0 0.143897,-1.959071 11.493737,11.493838 15.000387 0 0 -0.210411,-1.951613 l -2.660912,0.056 a 8.8832022,8.8832803 15.003575 0 0 -1.211956,-2.762887 l 1.841023,-1.918735 a 11.493737,11.493838 15.000387 0 0 -2.823829,-2.707433 l -1.83956,1.920137 a 8.8832022,8.8832803 15.003575 0 0 -2.811416,-1.094643 l -0.05599,-2.66093 a 11.493737,11.493838 15.000387 0 0 -1.958723,-0.128114 z m 0.171618,8.154934 a 3.3357329,3.3357622 15.005898 0 1 3.405291,3.26493 3.3357329,3.3357622 15.005898 0 1 -3.26492,3.405335 3.3357329,3.3357622 15.005898 0 1 -3.405292,-3.264931 3.3357329,3.3357622 15.005898 0 1 3.264921,-3.405334 z" />
  </g>
  <g
     inkscape:groupmode="layer"
     id="layer4"
     inkscape:label="tools"
     sodipodi:insensitive="true"
     style="display:none">
    <rect
       style="fill:#3b3c3a;fill-opacity:1;stroke-width:6.20734;stroke-linecap:round;paint-order:markers stroke fill"
       id="rect25306"
       width="259.6073"
       height="164.72081"
       x="9.6449594"
       y="-181.53185" />
    <rect
       style="fill:#7bb79d;fill-opacity:1;stroke:none;stroke-width:5.60344;stroke-linecap:round;paint-order:markers stroke fill"
       id="rect4056"
       width="153.4043"
       height="112.10314"
       x="18.698523"
       y="-139.97699" />
    <rect
       style="fill:#c29861;fill-opacity:1;stroke:none;stroke-width:3;stroke-linecap:round;paint-order:markers stroke fill"
       id="rect4058"
       width="88.50853"
       height="60.308647"
       x="-133.74002"
       y="-153.00528"
       mask="url(#mask4662-4)"
       transform="matrix(1.8678128,0,0,1.8678128,344.68264,145.53717)" />
  </g>
</svg>
