<?xml version="1.0" encoding="UTF-8" standalone="no"?>
<svg
   inkscape:version="1.2.1 (9c6d41e410, 2022-07-14)"
   id="svg8"
   version="1.1"
   viewBox="0 0 64 64"
   height="64"
   width="64"
   sodipodi:docname="state gear.svg"
   xmlns:inkscape="http://www.inkscape.org/namespaces/inkscape"
   xmlns:sodipodi="http://sodipodi.sourceforge.net/DTD/sodipodi-0.dtd"
   xmlns:xlink="http://www.w3.org/1999/xlink"
   xmlns="http://www.w3.org/2000/svg"
   xmlns:svg="http://www.w3.org/2000/svg"
   xmlns:rdf="http://www.w3.org/1999/02/22-rdf-syntax-ns#"
   xmlns:cc="http://creativecommons.org/ns#"
   xmlns:dc="http://purl.org/dc/elements/1.1/">
  <defs
     id="defs2">
    <mask
       maskUnits="userSpaceOnUse"
       id="mask4662">
      <rect
         style="fill:url(#linearGradient4666);fill-opacity:1;stroke:none;stroke-width:3;stroke-linecap:round;paint-order:markers stroke fill"
         id="rect4664"
         width="88.50853"
         height="60.308647"
         x="-133.74002"
         y="-153.00528" />
    </mask>
    <linearGradient
       inkscape:collect="always"
       xlink:href="#linearGradient4164"
       id="linearGradient4666"
       gradientUnits="userSpaceOnUse"
       x1="-99.956009"
       y1="-122.85096"
       x2="-98.559975"
       y2="-122.85096" />
    <linearGradient
       inkscape:collect="always"
       id="linearGradient4164">
      <stop
         style="stop-color:#ffffff;stop-opacity:0.5"
         offset="0"
         id="stop4160" />
      <stop
         style="stop-color:#ffffff;stop-opacity:1"
         offset="1"
         id="stop4162" />
    </linearGradient>
    <mask
       maskUnits="userSpaceOnUse"
       id="mask4662-4">
      <rect
         style="fill:url(#linearGradient4666);fill-opacity:1;stroke:none;stroke-width:3;stroke-linecap:round;paint-order:markers stroke fill"
         id="rect4664-9"
         width="88.50853"
         height="60.308647"
         x="-133.74002"
         y="-153.00528" />
    </mask>
  </defs>
  <sodipodi:namedview
     guidetolerance="19.9"
     objecttolerance="11"
     inkscape:showpageshadow="false"
     borderlayer="true"
     inkscape:pagecheckerboard="false"
     units="px"
     showgrid="true"
     inkscape:document-rotation="0"
     inkscape:current-layer="layer1"
     inkscape:document-units="px"
     inkscape:cy="35.93207"
     inkscape:cx="32.871921"
     inkscape:zoom="10.130226"
     inkscape:pageshadow="2"
     inkscape:pageopacity="0"
     borderopacity="1"
     bordercolor="#931476"
     pagecolor="#808080"
     id="base"
     gridtolerance="11.4"
     inkscape:window-width="1920"
     inkscape:window-height="1013"
     inkscape:window-x="-9"
     inkscape:window-y="-9"
     inkscape:window-maximized="1"
     inkscape:blackoutopacity="0.0"
     inkscape:deskcolor="#636363"
     inkscape:snap-global="false" />
  <metadata
     id="metadata5">
    <rdf:RDF>
      <cc:Work
         rdf:about="">
        <dc:format>image/svg+xml</dc:format>
        <dc:type
           rdf:resource="http://purl.org/dc/dcmitype/StillImage" />
        <cc:license
           rdf:resource="http://creativecommons.org/licenses/by-sa/4.0/" />
      </cc:Work>
      <cc:License
         rdf:about="http://creativecommons.org/licenses/by-sa/4.0/">
        <cc:permits
           rdf:resource="http://creativecommons.org/ns#Reproduction" />
        <cc:permits
           rdf:resource="http://creativecommons.org/ns#Distribution" />
        <cc:requires
           rdf:resource="http://creativecommons.org/ns#Notice" />
        <cc:requires
           rdf:resource="http://creativecommons.org/ns#Attribution" />
        <cc:permits
           rdf:resource="http://creativecommons.org/ns#DerivativeWorks" />
        <cc:requires
           rdf:resource="http://creativecommons.org/ns#ShareAlike" />
      </cc:License>
    </rdf:RDF>
  </metadata>
  <g
     id="layer1"
     inkscape:groupmode="layer"
     inkscape:label="workspace">
    <path
       id="path246"
       style="fill:#9fd7e6;stroke:#000000;stroke-width:2.00001;stroke-linecap:round;stroke-dasharray:none;paint-order:markers stroke fill;stop-color:#000000"
       d="m 35.059307,14.174968 a 18.071143,18.07113 9.4302314 0 0 -3.080829,-0.216709 l -0.686366,4.132468 a 13.966704,13.966694 9.4302314 0 0 -4.614356,1.044691 l -2.414315,-3.37604 a 18.071143,18.07113 9.4302314 0 0 -5.000484,3.576004 l 2.414315,3.376038 a 13.966704,13.966694 9.4302314 0 0 -2.480258,4.02889 l -4.13247,-0.686366 a 18.071143,18.07113 9.4302314 0 0 -0.790849,2.985467 18.071143,18.07113 9.4302314 0 0 -0.216708,3.080825 l 4.13247,0.686366 a 13.966704,13.966694 9.4302314 0 0 1.044692,4.614355 l -3.37604,2.414311 a 18.071143,18.07113 9.4302314 0 0 3.576006,5.000482 l 3.376041,-2.414312 a 13.966704,13.966694 9.4302314 0 0 4.028893,2.480257 l -0.686366,4.132468 a 18.071143,18.07113 9.4302314 0 0 2.98547,0.790849 18.071143,18.07113 9.4302314 0 0 3.080827,0.216708 l 0.686367,-4.132468 a 13.966704,13.966694 9.4302314 0 0 4.614356,-1.04469 l 2.414315,3.376039 a 18.071143,18.07113 9.4302314 0 0 5.000485,-3.576003 L 42.520187,41.28856 a 13.966704,13.966694 9.4302314 0 0 2.480258,-4.028892 l 4.132471,0.686366 a 18.071143,18.07113 9.4302314 0 0 0.790848,-2.985465 18.071143,18.07113 9.4302314 0 0 0.241188,-3.076761 l -4.12802,-0.685627 a 13.966704,13.966694 9.4302314 0 0 -1.071027,-4.621014 l 3.40162,-2.430643 a 18.071143,18.07113 9.4302314 0 0 -3.577862,-5.003076 l -3.399764,2.433238 a 13.966704,13.966694 9.4302314 0 0 -4.026685,-2.507331 l 0.685627,-4.128016 a 18.071143,18.07113 9.4302314 0 0 -2.989534,-0.766371 z m -2.101234,12.651091 a 5.2446397,5.2446358 9.4302314 0 1 4.31459,6.033275 5.2446397,5.2446358 9.4302314 0 1 -6.033277,4.314586 5.2446397,5.2446358 9.4302314 0 1 -4.31459,-6.033274 5.2446397,5.2446358 9.4302314 0 1 6.033277,-4.314587 z" />
  </g>
  <g
     inkscape:groupmode="layer"
     id="layer4"
     inkscape:label="tools"
     sodipodi:insensitive="true"
     style="display:none">
    <rect
       style="fill:#3b3c3a;fill-opacity:1;stroke-width:6.20734;stroke-linecap:round;paint-order:markers stroke fill"
       id="rect25306"
       width="259.6073"
       height="164.72081"
       x="9.6449594"
       y="-181.53185" />
    <rect
       style="fill:#7bb79d;fill-opacity:1;stroke:none;stroke-width:5.60344;stroke-linecap:round;paint-order:markers stroke fill"
       id="rect4056"
       width="153.4043"
       height="112.10314"
       x="18.698523"
       y="-139.97699" />
    <rect
       style="fill:#c29861;fill-opacity:1;stroke:none;stroke-width:3;stroke-linecap:round;paint-order:markers stroke fill"
       id="rect4058"
       width="88.50853"
       height="60.308647"
       x="-133.74002"
       y="-153.00528"
       mask="url(#mask4662-4)"
       transform="matrix(1.8678128,0,0,1.8678128,344.68264,145.53717)" />
  </g>
</svg>
